# xmcd
#
# Track frame offsets: 
#        150
#        9690
#        21725
#        33017
#        45385
#        59735
#        72082
#        83630
#        92195
#        102857
#        113275
#        124495
#
# Disc length: 1831 seconds
#
# Revision: 4
# Processed by: cddbd v1.5.1PL0 Copyright (c) Steve Scherf et al.
# Submitted via: ExactAudioCopy v0.95b3
#
DISCID=9807250c
DTITLE=Bill Monroe - The Best Of Bill Monroe - The Millenium Collectio
DTITLE=n
DYEAR=1999
DGENRE=Bluegrass
TTITLE0=Blue Moon Of Kentucky
TTITLE1=Footprints In The Snow
TTITLE2=New Mule Skinner Blues
TTITLE3=Uncle Pen
TTITLE4=In The Pines
TTITLE5=I'm Working On A Building
TTITLE6=Gotta Travel On
TTITLE7=Scotland
TTITLE8=Molly and Tenbrooks
TTITLE9=I'm Sitting On Top Of The World
TTITLE10=I Saw The Light
TTITLE11=My Sweet Blue-Eyed Darlin'
EXTD=
EXTT0=
EXTT1=
EXTT2=
EXTT3=
EXTT4=
EXTT5=
EXTT6=
EXTT7=
EXTT8=
EXTT9=
EXTT10=
EXTT11=
PLAYORDER=
